inDegrees=no
num_controls=7
num_derivatives=13
num_iterations=122
num_multipliers=7
num_parameters=0
num_slacks=7
num_states=26
objective=0.464106
objective_accelerations=0.018870
objective_balance=0.000855
objective_effort=0.025952
objective_height=0.412152
objective_ligament=0.006276
solver_duration=1293.984187
status=Solve_Succeeded
success=true
DataType=double
version=3
OpenSimVersion=4.5
endheader
time	/jointset/ground_pelvis/pelvis_tilt/value	/jointset/ground_pelvis/pelvis_tx/value	/jointset/ground_pelvis/pelvis_ty/value	/jointset/hip_r/hip_flexion_r/value	/jointset/hip_r/hip_adduction_r/value	/jointset/hip_r/hip_rotation_r/value	/jointset/back/lumbar_extension/value	/jointset/patellofemoral_r/patellar_flexion_r/value	/jointset/knee_r/knee_flexion_r/value	/jointset/knee_r/knee_adduction_r/value	/jointset/knee_r/knee_rotation_r/value	/jointset/ankle_r/ankle_angle_r/value	/jointset/subtalar_r/subtalar_angle_r/value	/jointset/ground_pelvis/pelvis_tilt/speed	/jointset/ground_pelvis/pelvis_tx/speed	/jointset/ground_pelvis/pelvis_ty/speed	/jointset/hip_r/hip_flexion_r/speed	/jointset/hip_r/hip_adduction_r/speed	/jointset/hip_r/hip_rotation_r/speed	/jointset/back/lumbar_extension/speed	/jointset/patellofemoral_r/patellar_flexion_r/speed	/jointset/knee_r/knee_flexion_r/speed	/jointset/knee_r/knee_adduction_r/speed	/jointset/knee_r/knee_rotation_r/speed	/jointset/ankle_r/ankle_angle_r/speed	/jointset/subtalar_r/subtalar_angle_r/speed	/forceset/tau_hip_flexion_r	/forceset/tau_hip_adduction_r	/forceset/tau_hip_rotation_r	/forceset/tau_knee_flexion_r	/forceset/tau_ankle_angle_r	/forceset/tau_subtalar_angle_r	/forceset/tau_lumbar_extension	lambda_cid13_p0	lambda_cid14_p0	lambda_cid14_p1	lambda_cid14_p2	lambda_cid14_p3	lambda_cid14_p4	lambda_cid14_p5	/jointset/ground_pelvis/pelvis_tilt/accel	/jointset/ground_pelvis/pelvis_tx/accel	/jointset/ground_pelvis/pelvis_ty/accel	/jointset/hip_r/hip_flexion_r/accel	/jointset/hip_r/hip_adduction_r/accel	/jointset/hip_r/hip_rotation_r/accel	/jointset/back/lumbar_extension/accel	/jointset/patellofemoral_r/patellar_flexion_r/accel	/jointset/knee_r/knee_flexion_r/accel	/jointset/knee_r/knee_adduction_r/accel	/jointset/knee_r/knee_rotation_r/accel	/jointset/ankle_r/ankle_angle_r/accel	/jointset/subtalar_r/subtalar_angle_r/accel	gamma_cid13_p0	gamma_cid14_p0	gamma_cid14_p1	gamma_cid14_p2	gamma_cid14_p3	gamma_cid14_p4	gamma_cid14_p5
0	-0.002192326234882595	0.129043711512587	0.9340899141324948	0.1934211968871041	-0.219652816350272	-0.2461477838060559	-0.2903787966825928	0.2311786273363419	0.2311786273363406	0.1134888273118875	0.1725880654847395	0.089344008118978	0.07451849801361733	0	0	0	0	0	0	0	0	0	0	0	0	0	0.04671366397360032	-0.02493238057530579	0.002526655342049169	-0.1926343436122833	0.09051598234347288	-0.07338691587299521	0.02848706928288115	-29.86220464997552	-16.57813890771698	-29.7102366077093	-0.626219841794349	-11.10462921524884	-622.3106232824014	39.24222675644926	1.842776282629499	-0.5093486500967197	-0.3620131745022073	2.579940094054145	-0.2492392322736193	1.643743550008501	-4.965095811928669	7.315640972130523	7.31564097213062	-1.431637758175615	0.2419215890100697	3.311716100148437	0.6618934535258556	2.205308382823972e-08	7.423588266161226e-09	-1.909885419382909e-07	1.389672613318524e-07	1.793789720477394e-08	9.658717351780086e-08	-1.953594161356808e-07
0.01	-0.002099336646188723	0.1290185447577465	0.9340724491544864	0.1935446811747769	-0.2196644919182399	-0.2460651958271615	-0.2906257429659661	0.2315363123471191	0.2315363123471211	0.1134179517417504	0.1725974013166341	0.08950611120662391	0.07455151508353797	0.01845827810777426	-0.005014035302807023	-0.003480303541059751	0.02457651912157813	-0.002353828623679361	0.01647361235717347	-0.04901876120238832	0.07108990732843422	0.07108990732843387	-0.01400264792424395	0.001813946156420013	0.03218964023947437	0.006512215907730431	0.04440664013492556	-0.03752042107208833	0.0028666963973136	-0.1897741572215328	0.08245131882047606	-0.06140866573029499	0.03063113333804448	-29.86622570861871	-18.58719377591451	-24.58445679010189	-1.75797909768901	-9.992325047741122	-624.0308173285619	49.91474203986468	1.826406770295577	-0.4945300330782832	-0.3391158173765467	2.378457418805883	-0.2312618363153078	1.642600444395809	-4.81469195350482	6.938596978446932	6.938596978446863	-1.358723546817519	0.1431750469440221	3.137944087697615	0.632192507874452	2.637986337425954e-08	-1.779329616603922e-10	-2.229397512789876e-07	1.295201803665597e-07	2.633007574070914e-08	2.787022081160087e-08	-1.979021144673397e-07
0.02	-0.001825953637329076	0.1289438178373368	0.9340205657663736	0.1939103205731824	-0.2197002672042244	-0.2458191856515309	-0.2913517619971863	0.2325914827042364	0.2325914827042355	0.1132122206449553	0.1726232853936693	0.08998318191703343	0.07464691568223152	0.03607868403331704	-0.009912033113863723	-0.006883682020886257	0.04843102214700087	-0.004819943603374033	0.03268443934730952	-0.09581454956920937	0.1394970692667506	0.1394970692667514	-0.02697110533924026	0.003309649032284078	0.06299352455297548	0.01247670575457436	0.04209961629624109	-0.05010846156885268	0.003206737452495305	-0.1869139708307803	0.07438665529748591	-0.0494304155875691	0.032775197393194	-29.87786479818238	-20.54023300837484	-19.46061789891911	-2.876008006740903	-8.954558049025282	-624.918029511055	60.42430612216991	1.675201846183231	-0.4861411517466828	-0.346628162255557	2.435536874823074	-0.2716965034766824	1.591186476601014	-4.520501244815207	6.779091894106967	6.779091894107348	-1.224799656326087	0.1782729328988837	3.034564914953751	0.5523482413485448	3.070664292027936e-08	-7.77945418948201e-09	-2.548909606196842e-07	1.200730994012671e-07	3.472225427664434e-08	-4.084673189459911e-08	-2.004448127989986e-07
0.03	-0.001380010041606673	0.128820815296109	0.9339348782052364	0.1945110039857962	-0.2197611714665308	-0.2454126853698541	-0.2925353115940892	0.2343188593237419	0.2343188593237404	0.1128813777659614	0.1726630248696561	0.09076240031684162	0.07479967004727972	0.05303914774064209	-0.01465633304386352	-0.01025300486580349	0.07157383008696	-0.007361028906756668	0.04854737395874018	-0.1406091345708372	0.2056697510276559	0.2056697510276567	-0.039100152670999	0.004619919220107056	0.09271972173882098	0.01803785199729943	0.04013670778948984	-0.04600522274866749	0.003308311261943023	-0.1853851377374885	0.07217981717772119	-0.05113625325366104	0.03468367381170696	-29.89656475143178	-21.40223890630735	-20.36428507741787	-2.718356866544847	-8.45961765496622	-625.8108017898437	58.16872272436223	1.695837213595539	-0.4637461221744566	-0.3319689914795658	2.233878667751091	-0.2453418242983393	1.573637336157952	-4.416001841720348	6.490074617296197	6.49007461729599	-1.19238627336759	0.1046798486797909	2.922085940292778	0.5525249879966266	3.374847671315988e-08	-1.327301666292304e-08	-2.823620537787593e-07	1.18028894349783e-07	4.20457188494546e-08	-7.734012662764573e-08	-2.100261696532184e-07
0.04	-0.0007665880926933015	0.1286513354138716	0.9338155204864758	0.1953391606606436	-0.2198474920379753	-0.2448495976655143	-0.2941582199837852	0.2366987064208979	0.2366987064208968	0.1124321586132865	0.1727153222049159	0.09183496845248709	0.07500694130920764	0.06957435467150792	-0.01920750131579605	-0.01361771354552707	0.09392567459366852	-0.009903205431308992	0.06400192387992451	-0.1836863081278128	0.2699911647971163	0.2699911647971165	-0.05064636007343006	0.005821220886162021	0.121663471720379	0.02338008513050954	0.03817379928273691	-0.04190198392848832	0.003409885071399907	-0.1838563046441999	0.06997297905795337	-0.05284209091976149	0.0365921502302223	-29.92162319465525	-22.21274535445107	-21.27258108379002	-2.544379969101878	-8.036365212510399	-625.9343261622492	55.76022539254429	1.590150490891419	-0.4475148201332578	-0.3457053292168261	2.277344188172962	-0.2719147477106195	1.509509538551747	-4.17701895588476	6.408838295817979	6.408838295818245	-1.108231670460554	0.1564792285452862	2.878075474096214	0.5085656194455404	3.676381677917155e-08	-1.872311606926344e-08	-3.097407734083165e-07	1.161373259150785e-07	4.934714808281898e-08	-1.13169118103514e-07	-2.197526534872848e-07
0.05	9.718415951776146e-06	0.128437322369558	0.9336624461187578	0.1963870119827321	-0.2199594280283035	-0.2441342252947502	-0.296203069853036	0.239712191406712	0.2397121914067129	0.1118709565375487	0.1727792835850448	0.09319279797815963	0.07526624101730302	0.08559627952788687	-0.02356132773557148	-0.01700195580912635	0.1155071736928156	-0.01248426831835995	0.07898831903751564	-0.2249890306048226	0.3323514349640731	0.3323514349640735	-0.06147735190510331	0.006953142757345912	0.1497466654475835	0.02843674398539199	0.03638913468206716	-0.04220693090554339	0.003561358591308865	-0.1831820057963542	0.0672446623949922	-0.0509636049453327	0.03845330970675761	-29.95231352689541	-23.02211306394334	-20.57098929389803	-2.687621682659242	-7.651645615128309	-626.6297977798731	56.85866292216782	1.594616488303501	-0.42423965285083	-0.3355259699361617	2.077940886686202	-0.2512585178883339	1.480597750653567	-4.062703625942697	6.096454389722503	6.09645438972236	-1.053062644533271	0.08888678212845173	2.750080572686258	0.4977147002373662	3.602429923880099e-08	-2.426092910849242e-08	-3.046165754349553e-07	9.807373334486621e-08	5.336704992251816e-08	-1.514460084438133e-07	-2.032577315975099e-07
0.06	0.0009435247742188336	0.1281807864410564	0.9334753808694028	0.1976465559189918	-0.2200971859392384	-0.2432715103231521	-0.2986521078935238	0.2433386456967165	0.2433386456967155	0.1112049386024985	0.1728540318070222	0.09482678729123485	0.07557480705029282	0.1010743245959637	-0.02771207815341297	-0.02041588987292508	0.1362641974279855	-0.01506758955285112	0.09347044404673764	-0.2645239423751736	0.3925850256345483	0.3925850256345478	-0.0716095319372793	0.007978589257471415	0.1768954292009351	0.03323335010938507	0.034604470081395	-0.04251187788259869	0.003712832111180656	-0.182507706948508	0.06451634573203091	-0.0490851189709036	0.04031446918329189	-29.9876733860872	-23.78358816132059	-19.87074610654442	-2.819528925685146	-7.34113858837697	-626.6207194806058	57.82854953298663	1.481374533231035	-0.4068996197464991	-0.3516436892567163	2.112449115377539	-0.2723664171986617	1.408655508877911	-3.823456814552988	5.983502396521662	5.983502396521687	-0.9684693105611057	0.1351841543336142	2.691189479325614	0.4565550732676565	3.512668243079328e-08	-2.980243535331671e-08	-2.981238335625239e-07	7.932921344263255e-08	5.724878218774723e-08	-1.898259682099835e-07	-1.856587505193628e-07
